<?xml version="1.0" standalone="no"?>
 <!DOCTYPE svg PUBLIC "-//W3C//DTD SVG 1.1//EN" 
 "http://www.w3.org/Graphics/SVG/1.1/DTD/svg11.dtd"> 
<svg xmlns="http://www.w3.org/2000/svg" version="1.1" 
    width="29.7002cm" height="21.0007cm" viewBox="0 0 116930 82680 ">
<title>SVG Picture created as BAR30-SENSOR-B_Mask.svg date 2019/09/27 19:17:34 </title>
  <desc>Picture generated by PCBNEW </desc>
<g style="fill:#000000; fill-opacity:1;stroke:#000000; stroke-opacity:1;
stroke-linecap:round; stroke-linejoin:round; "
 transform="translate(0 0) scale(1 1)">
</g>
<g style="fill:#000000; fill-opacity:0.0; 
stroke:#000000; stroke-width:-0.000393701; stroke-opacity:1; 
stroke-linecap:round; stroke-linejoin:round;">
</g>
<g style="fill:#000000; fill-opacity:1.0; 
stroke:#000000; stroke-width:0; stroke-opacity:1; 
stroke-linecap:round; stroke-linejoin:round;">
<path style="fill:#000000; fill-opacity:1.0; 
stroke:#000000; stroke-width:0; stroke-opacity:1; 
stroke-linecap:round; stroke-linejoin:round;fill-rule:evenodd;"
d="M 22133,20599
22159,20601
22226,20622
22288,20655
22302,20666
22342,20699
22374,20739
22386,20753
22419,20815
22439,20881
22446,20951
22439,21021
22419,21087
22386,21149
22374,21163
22342,21203
22302,21236
22288,21247
22226,21280
22159,21301
22133,21303
22107,21306
22072,21306
22046,21303
22020,21301
21953,21280
21892,21247
21878,21236
21838,21203
21805,21163
21793,21149
21760,21087
21740,21021
21733,20951
21740,20881
21760,20815
21793,20753
21805,20739
21838,20699
21878,20666
21892,20655
21953,20622
22020,20601
22046,20599
22072,20596
22107,20596
22133,20599
Z" /> 
<path style="fill:#000000; fill-opacity:1.0; 
stroke:#000000; stroke-width:0; stroke-opacity:1; 
stroke-linecap:round; stroke-linejoin:round;fill-rule:evenodd;"
d="M 20133,20599
20159,20601
20226,20622
20288,20655
20302,20666
20342,20699
20374,20739
20386,20753
20419,20815
20439,20881
20446,20951
20439,21021
20419,21087
20386,21149
20374,21163
20342,21203
20302,21236
20288,21247
20226,21280
20159,21301
20133,21303
20107,21306
20072,21306
20046,21303
20020,21301
19953,21280
19892,21247
19878,21236
19838,21203
19805,21163
19793,21149
19760,21087
19740,21021
19733,20951
19740,20881
19760,20815
19793,20753
19805,20739
19838,20699
19878,20666
19892,20655
19953,20622
20020,20601
20046,20599
20072,20596
20107,20596
20133,20599
Z" /> 
<path style="fill:#000000; fill-opacity:1.0; 
stroke:#000000; stroke-width:0; stroke-opacity:1; 
stroke-linecap:round; stroke-linejoin:round;fill-rule:evenodd;"
d="M 21133,20599
21159,20601
21226,20622
21288,20655
21302,20666
21342,20699
21374,20739
21386,20753
21419,20815
21439,20881
21446,20951
21439,21021
21419,21087
21386,21149
21374,21163
21342,21203
21302,21236
21288,21247
21226,21280
21159,21301
21133,21303
21107,21306
21072,21306
21046,21303
21020,21301
20953,21280
20892,21247
20878,21236
20838,21203
20805,21163
20793,21149
20760,21087
20740,21021
20733,20951
20740,20881
20760,20815
20793,20753
20805,20739
20838,20699
20878,20666
20892,20655
20953,20622
21020,20601
21046,20599
21072,20596
21107,20596
21133,20599
Z" /> 
<path style="fill:#000000; fill-opacity:1.0; 
stroke:#000000; stroke-width:0; stroke-opacity:1; 
stroke-linecap:round; stroke-linejoin:round;fill-rule:evenodd;"
d="M 23444,21306
22735,21306
22735,20596
23444,20596
23444,21306
Z" /> 
<path style="fill:#000000; fill-opacity:1.0; 
stroke:#000000; stroke-width:0; stroke-opacity:1; 
stroke-linecap:round; stroke-linejoin:round;fill-rule:evenodd;"
d="M 21486,19725
20914,19725
20914,19153
21486,19153
21486,19725
Z" /> 
<path style="fill:#000000; fill-opacity:1.0; 
stroke:#000000; stroke-width:0; stroke-opacity:1; 
stroke-linecap:round; stroke-linejoin:round;fill-rule:evenodd;"
d="M 22273,19725
21701,19725
21701,19153
22273,19153
22273,19725
Z" /> 
<path style="fill:#000000; fill-opacity:1.0; 
stroke:#000000; stroke-width:0; stroke-opacity:1; 
stroke-linecap:round; stroke-linejoin:round;fill-rule:evenodd;"
d="M 22273,18938
21701,18938
21701,18366
22273,18366
22273,18938
Z" /> 
<path style="fill:#000000; fill-opacity:1.0; 
stroke:#000000; stroke-width:0; stroke-opacity:1; 
stroke-linecap:round; stroke-linejoin:round;fill-rule:evenodd;"
d="M 21486,18938
20914,18938
20914,18366
21486,18366
21486,18938
Z" /> 
<path style="fill:#000000; fill-opacity:1.0; 
stroke:#000000; stroke-width:0; stroke-opacity:1; 
stroke-linecap:round; stroke-linejoin:round;fill-rule:evenodd;"
d="M 22036,17081
22059,17091
22090,17103
22138,17136
22179,17177
22212,17225
22234,17279
22245,17336
22245,17395
22234,17452
22212,17506
22179,17554
22138,17595
22090,17628
22090,17628
22090,17628
22036,17650
21979,17661
21920,17661
21863,17650
21809,17628
21809,17628
21809,17628
21761,17595
21720,17554
21687,17506
21665,17452
21654,17395
21654,17336
21665,17279
21687,17225
21720,17177
21761,17136
21809,17103
21840,17091
21863,17081
21920,17070
21979,17070
22036,17081
Z" /> 
<path style="fill:#000000; fill-opacity:1.0; 
stroke:#000000; stroke-width:0; stroke-opacity:1; 
stroke-linecap:round; stroke-linejoin:round;fill-rule:evenodd;"
d="M 21230,17071
21259,17074
21315,17091
21367,17118
21378,17128
21412,17155
21439,17189
21448,17200
21476,17252
21493,17308
21499,17366
21493,17423
21476,17479
21448,17531
21439,17542
21412,17576
21388,17595
21367,17613
21315,17640
21259,17657
21230,17660
21216,17661
21187,17661
21172,17660
21144,17657
21088,17640
21036,17613
21015,17595
20991,17576
20964,17542
20954,17531
20927,17479
20910,17423
20904,17366
20910,17308
20927,17252
20954,17200
20964,17189
20991,17155
21025,17128
21036,17118
21088,17091
21144,17074
21172,17071
21187,17070
21216,17070
21230,17071
Z" /> 
</g> 
</svg>
