G04 #@! TF.GenerationSoftware,KiCad,Pcbnew,5.1.4-e60b266~84~ubuntu18.04.1*
G04 #@! TF.CreationDate,2019-09-29T18:03:22-04:00*
G04 #@! TF.ProjectId,BAR30-SENSOR,42415233-302d-4534-954e-534f522e6b69,rev?*
G04 #@! TF.SameCoordinates,Original*
G04 #@! TF.FileFunction,Copper,L2,Bot*
G04 #@! TF.FilePolarity,Positive*
%FSLAX46Y46*%
G04 Gerber Fmt 4.6, Leading zero omitted, Abs format (unit mm)*
G04 Created by KiCad (PCBNEW 5.1.4-e60b266~84~ubuntu18.04.1) date 2019-09-29 18:03:22*
%MOMM*%
%LPD*%
G04 APERTURE LIST*
%ADD10R,1.700000X1.700000*%
%ADD11O,1.700000X1.700000*%
%ADD12R,1.300000X1.300000*%
%ADD13C,1.400000*%
%ADD14O,1.400000X1.400000*%
%ADD15C,1.400000*%
G04 APERTURE END LIST*
D10*
X58649000Y-53216840D03*
D11*
X56109000Y-53216840D03*
X53569000Y-53216840D03*
X51029000Y-53216840D03*
D12*
X55849000Y-47376840D03*
X55849000Y-49376840D03*
X53849000Y-49376840D03*
X53849000Y-47376840D03*
D13*
X55753000Y-44109640D03*
D14*
X53853000Y-44109640D03*
D15*
X51029000Y-48146840D02*
X51029000Y-51960359D01*
X51799000Y-47376840D02*
X51029000Y-48146840D01*
X51029000Y-51960359D02*
X51029000Y-53162440D01*
X53849000Y-47376840D02*
X51799000Y-47376840D01*
X53853000Y-47372840D02*
X53849000Y-47376840D01*
X53853000Y-44109640D02*
X53853000Y-47372840D01*
X53849000Y-49376840D02*
X53849000Y-51700700D01*
X53569000Y-51980700D02*
X53569000Y-53216840D01*
X53849000Y-51700700D02*
X53569000Y-51980700D01*
X55849000Y-49376840D02*
X55849000Y-51693560D01*
X56109000Y-51953560D02*
X56109000Y-53216840D01*
X55849000Y-51693560D02*
X56109000Y-51953560D01*
X58649000Y-50912440D02*
X58648600Y-50912040D01*
X58649000Y-53162440D02*
X58649000Y-50912440D01*
X58648600Y-50912040D02*
X58648600Y-47919640D01*
X58105800Y-47376840D02*
X55849000Y-47376840D01*
X58648600Y-47919640D02*
X58105800Y-47376840D01*
X55849000Y-44205640D02*
X55753000Y-44109640D01*
X55849000Y-47376840D02*
X55849000Y-44205640D01*
M02*
