G04 #@! TF.GenerationSoftware,KiCad,Pcbnew,5.1.4-e60b266~84~ubuntu18.04.1*
G04 #@! TF.CreationDate,2019-09-29T18:03:22-04:00*
G04 #@! TF.ProjectId,BAR30-SENSOR,42415233-302d-4534-954e-534f522e6b69,rev?*
G04 #@! TF.SameCoordinates,Original*
G04 #@! TF.FileFunction,Soldermask,Bot*
G04 #@! TF.FilePolarity,Negative*
%FSLAX46Y46*%
G04 Gerber Fmt 4.6, Leading zero omitted, Abs format (unit mm)*
G04 Created by KiCad (PCBNEW 5.1.4-e60b266~84~ubuntu18.04.1) date 2019-09-29 18:03:22*
%MOMM*%
%LPD*%
G04 APERTURE LIST*
%ADD10C,0.100000*%
G04 APERTURE END LIST*
D10*
G36*
X56219442Y-52322358D02*
G01*
X56285627Y-52328877D01*
X56455466Y-52380397D01*
X56611991Y-52464062D01*
X56647729Y-52493392D01*
X56749186Y-52576654D01*
X56832448Y-52678111D01*
X56861778Y-52713849D01*
X56945443Y-52870374D01*
X56996963Y-53040213D01*
X57014359Y-53216840D01*
X56996963Y-53393467D01*
X56945443Y-53563306D01*
X56861778Y-53719831D01*
X56832448Y-53755569D01*
X56749186Y-53857026D01*
X56647729Y-53940288D01*
X56611991Y-53969618D01*
X56455466Y-54053283D01*
X56285627Y-54104803D01*
X56219442Y-54111322D01*
X56153260Y-54117840D01*
X56064740Y-54117840D01*
X55998558Y-54111322D01*
X55932373Y-54104803D01*
X55762534Y-54053283D01*
X55606009Y-53969618D01*
X55570271Y-53940288D01*
X55468814Y-53857026D01*
X55385552Y-53755569D01*
X55356222Y-53719831D01*
X55272557Y-53563306D01*
X55221037Y-53393467D01*
X55203641Y-53216840D01*
X55221037Y-53040213D01*
X55272557Y-52870374D01*
X55356222Y-52713849D01*
X55385552Y-52678111D01*
X55468814Y-52576654D01*
X55570271Y-52493392D01*
X55606009Y-52464062D01*
X55762534Y-52380397D01*
X55932373Y-52328877D01*
X55998558Y-52322358D01*
X56064740Y-52315840D01*
X56153260Y-52315840D01*
X56219442Y-52322358D01*
X56219442Y-52322358D01*
G37*
G36*
X51139442Y-52322358D02*
G01*
X51205627Y-52328877D01*
X51375466Y-52380397D01*
X51531991Y-52464062D01*
X51567729Y-52493392D01*
X51669186Y-52576654D01*
X51752448Y-52678111D01*
X51781778Y-52713849D01*
X51865443Y-52870374D01*
X51916963Y-53040213D01*
X51934359Y-53216840D01*
X51916963Y-53393467D01*
X51865443Y-53563306D01*
X51781778Y-53719831D01*
X51752448Y-53755569D01*
X51669186Y-53857026D01*
X51567729Y-53940288D01*
X51531991Y-53969618D01*
X51375466Y-54053283D01*
X51205627Y-54104803D01*
X51139442Y-54111322D01*
X51073260Y-54117840D01*
X50984740Y-54117840D01*
X50918558Y-54111322D01*
X50852373Y-54104803D01*
X50682534Y-54053283D01*
X50526009Y-53969618D01*
X50490271Y-53940288D01*
X50388814Y-53857026D01*
X50305552Y-53755569D01*
X50276222Y-53719831D01*
X50192557Y-53563306D01*
X50141037Y-53393467D01*
X50123641Y-53216840D01*
X50141037Y-53040213D01*
X50192557Y-52870374D01*
X50276222Y-52713849D01*
X50305552Y-52678111D01*
X50388814Y-52576654D01*
X50490271Y-52493392D01*
X50526009Y-52464062D01*
X50682534Y-52380397D01*
X50852373Y-52328877D01*
X50918558Y-52322358D01*
X50984740Y-52315840D01*
X51073260Y-52315840D01*
X51139442Y-52322358D01*
X51139442Y-52322358D01*
G37*
G36*
X53679442Y-52322358D02*
G01*
X53745627Y-52328877D01*
X53915466Y-52380397D01*
X54071991Y-52464062D01*
X54107729Y-52493392D01*
X54209186Y-52576654D01*
X54292448Y-52678111D01*
X54321778Y-52713849D01*
X54405443Y-52870374D01*
X54456963Y-53040213D01*
X54474359Y-53216840D01*
X54456963Y-53393467D01*
X54405443Y-53563306D01*
X54321778Y-53719831D01*
X54292448Y-53755569D01*
X54209186Y-53857026D01*
X54107729Y-53940288D01*
X54071991Y-53969618D01*
X53915466Y-54053283D01*
X53745627Y-54104803D01*
X53679442Y-54111322D01*
X53613260Y-54117840D01*
X53524740Y-54117840D01*
X53458558Y-54111322D01*
X53392373Y-54104803D01*
X53222534Y-54053283D01*
X53066009Y-53969618D01*
X53030271Y-53940288D01*
X52928814Y-53857026D01*
X52845552Y-53755569D01*
X52816222Y-53719831D01*
X52732557Y-53563306D01*
X52681037Y-53393467D01*
X52663641Y-53216840D01*
X52681037Y-53040213D01*
X52732557Y-52870374D01*
X52816222Y-52713849D01*
X52845552Y-52678111D01*
X52928814Y-52576654D01*
X53030271Y-52493392D01*
X53066009Y-52464062D01*
X53222534Y-52380397D01*
X53392373Y-52328877D01*
X53458558Y-52322358D01*
X53524740Y-52315840D01*
X53613260Y-52315840D01*
X53679442Y-52322358D01*
X53679442Y-52322358D01*
G37*
G36*
X59550000Y-54117840D02*
G01*
X57748000Y-54117840D01*
X57748000Y-52315840D01*
X59550000Y-52315840D01*
X59550000Y-54117840D01*
X59550000Y-54117840D01*
G37*
G36*
X54575200Y-50103040D02*
G01*
X53122800Y-50103040D01*
X53122800Y-48650640D01*
X54575200Y-48650640D01*
X54575200Y-50103040D01*
X54575200Y-50103040D01*
G37*
G36*
X56575200Y-50103040D02*
G01*
X55122800Y-50103040D01*
X55122800Y-48650640D01*
X56575200Y-48650640D01*
X56575200Y-50103040D01*
X56575200Y-50103040D01*
G37*
G36*
X56575200Y-48103040D02*
G01*
X55122800Y-48103040D01*
X55122800Y-46650640D01*
X56575200Y-46650640D01*
X56575200Y-48103040D01*
X56575200Y-48103040D01*
G37*
G36*
X54575200Y-48103040D02*
G01*
X53122800Y-48103040D01*
X53122800Y-46650640D01*
X54575200Y-46650640D01*
X54575200Y-48103040D01*
X54575200Y-48103040D01*
G37*
G36*
X55972059Y-43387500D02*
G01*
X56032294Y-43412450D01*
X56108732Y-43444112D01*
X56231735Y-43526300D01*
X56336340Y-43630905D01*
X56418528Y-43753908D01*
X56475140Y-43890581D01*
X56504000Y-44035673D01*
X56504000Y-44183607D01*
X56475140Y-44328699D01*
X56418528Y-44465372D01*
X56336340Y-44588375D01*
X56231735Y-44692980D01*
X56108732Y-44775168D01*
X56108731Y-44775169D01*
X56108730Y-44775169D01*
X55972059Y-44831780D01*
X55826968Y-44860640D01*
X55679032Y-44860640D01*
X55533941Y-44831780D01*
X55397270Y-44775169D01*
X55397269Y-44775169D01*
X55397268Y-44775168D01*
X55274265Y-44692980D01*
X55169660Y-44588375D01*
X55087472Y-44465372D01*
X55030860Y-44328699D01*
X55002000Y-44183607D01*
X55002000Y-44035673D01*
X55030860Y-43890581D01*
X55087472Y-43753908D01*
X55169660Y-43630905D01*
X55274265Y-43526300D01*
X55397268Y-43444112D01*
X55473707Y-43412450D01*
X55533941Y-43387500D01*
X55679032Y-43358640D01*
X55826968Y-43358640D01*
X55972059Y-43387500D01*
X55972059Y-43387500D01*
G37*
G36*
X53926665Y-43362262D02*
G01*
X54000222Y-43369507D01*
X54141786Y-43412450D01*
X54272252Y-43482186D01*
X54302040Y-43506632D01*
X54386607Y-43576033D01*
X54456008Y-43660600D01*
X54480454Y-43690388D01*
X54550190Y-43820854D01*
X54593133Y-43962418D01*
X54607633Y-44109640D01*
X54593133Y-44256862D01*
X54550190Y-44398426D01*
X54480454Y-44528892D01*
X54456008Y-44558680D01*
X54386607Y-44643247D01*
X54326004Y-44692981D01*
X54272252Y-44737094D01*
X54141786Y-44806830D01*
X54000222Y-44849773D01*
X53926665Y-44857018D01*
X53889888Y-44860640D01*
X53816112Y-44860640D01*
X53779335Y-44857018D01*
X53705778Y-44849773D01*
X53564214Y-44806830D01*
X53433748Y-44737094D01*
X53379996Y-44692981D01*
X53319393Y-44643247D01*
X53249992Y-44558680D01*
X53225546Y-44528892D01*
X53155810Y-44398426D01*
X53112867Y-44256862D01*
X53098367Y-44109640D01*
X53112867Y-43962418D01*
X53155810Y-43820854D01*
X53225546Y-43690388D01*
X53249992Y-43660600D01*
X53319393Y-43576033D01*
X53403960Y-43506632D01*
X53433748Y-43482186D01*
X53564214Y-43412450D01*
X53705778Y-43369507D01*
X53779335Y-43362262D01*
X53816112Y-43358640D01*
X53889888Y-43358640D01*
X53926665Y-43362262D01*
X53926665Y-43362262D01*
G37*
M02*
