<?xml version="1.0" standalone="no"?>
 <!DOCTYPE svg PUBLIC "-//W3C//DTD SVG 1.1//EN" 
 "http://www.w3.org/Graphics/SVG/1.1/DTD/svg11.dtd"> 
<svg xmlns="http://www.w3.org/2000/svg" version="1.1" 
    width="29.7002cm" height="21.0007cm" viewBox="0 0 116930 82680 ">
<title>SVG Picture created as BAR30-SENSOR-F_SilkS.svg date 2019/09/27 19:17:34 </title>
  <desc>Picture generated by PCBNEW </desc>
<g style="fill:#000000; fill-opacity:1;stroke:#000000; stroke-opacity:1;
stroke-linecap:round; stroke-linejoin:round; "
 transform="translate(0 0) scale(1 1)">
</g>
<g style="fill:#000000; fill-opacity:0.0; 
stroke:#000000; stroke-width:-0.000393701; stroke-opacity:1; 
stroke-linecap:round; stroke-linejoin:round;">
</g>
<g style="fill:#000000; fill-opacity:0.0; 
stroke:#000000; stroke-width:59.0551; stroke-opacity:1; 
stroke-linecap:round; stroke-linejoin:round;">
<path d="M18419 14843
L18381 14862
L18306 14862
L18269 14843
L18250 14805
L18250 14655
L18269 14618
L18306 14599
L18381 14599
L18419 14618
L18437 14655
L18437 14693
L18250 14730
" />
<path d="M18775 14862
L18775 14468
" />
<path d="M18775 14843
L18737 14862
L18662 14862
L18625 14843
L18606 14824
L18587 14787
L18587 14674
L18606 14637
L18625 14618
L18662 14599
L18737 14599
L18775 14618
" />
<path d="M19131 14599
L19131 14918
L19112 14955
L19094 14974
L19056 14993
L19000 14993
L18962 14974
" />
<path d="M19131 14843
L19094 14862
L19019 14862
L18981 14843
L18962 14824
L18944 14787
L18944 14674
L18962 14637
L18981 14618
L19019 14599
L19094 14599
L19131 14618
" />
<path d="M19469 14843
L19431 14862
L19356 14862
L19319 14843
L19300 14805
L19300 14655
L19319 14618
L19356 14599
L19431 14599
L19469 14618
L19487 14655
L19487 14693
L19300 14730
" />
<path d="M19825 14843
L19787 14862
L19712 14862
L19675 14843
L19656 14824
L19637 14787
L19637 14674
L19656 14637
L19675 14618
L19712 14599
L19787 14599
L19825 14618
" />
<path d="M20050 14862
L20012 14843
L19993 14824
L19975 14787
L19975 14674
L19993 14637
L20012 14618
L20050 14599
L20106 14599
L20143 14618
L20162 14637
L20181 14674
L20181 14787
L20162 14824
L20143 14843
L20106 14862
L20050 14862
" />
<path d="M20406 14862
L20368 14843
L20350 14805
L20350 14468
" />
<path d="M20612 14862
L20575 14843
L20556 14805
L20556 14468
" />
<path d="M20912 14843
L20875 14862
L20800 14862
L20762 14843
L20743 14805
L20743 14655
L20762 14618
L20800 14599
L20875 14599
L20912 14618
L20931 14655
L20931 14693
L20743 14730
" />
<path d="M21268 14843
L21231 14862
L21156 14862
L21118 14843
L21100 14824
L21081 14787
L21081 14674
L21100 14637
L21118 14618
L21156 14599
L21231 14599
L21268 14618
" />
<path d="M21381 14599
L21531 14599
" />
<path d="M21437 14468
L21437 14805
L21456 14843
L21493 14862
L21531 14862
" />
<path d="M21662 14862
L21662 14599
" />
<path d="M21662 14468
L21643 14487
L21662 14505
L21681 14487
L21662 14468
L21662 14505
" />
<path d="M21812 14599
L21906 14862
L21999 14599
" />
<path d="M22299 14843
L22262 14862
L22187 14862
L22149 14843
L22131 14805
L22131 14655
L22149 14618
L22187 14599
L22262 14599
L22299 14618
L22318 14655
L22318 14693
L22131 14730
" />
<path d="M22487 14824
L22506 14843
L22487 14862
L22468 14843
L22487 14824
L22487 14862
" />
<path d="M22674 14862
L22674 14599
" />
<path d="M22674 14468
L22656 14487
L22674 14505
L22693 14487
L22674 14468
L22674 14505
" />
<path d="M22918 14862
L22881 14843
L22862 14824
L22843 14787
L22843 14674
L22862 14637
L22881 14618
L22918 14599
L22974 14599
L23012 14618
L23031 14637
L23049 14674
L23049 14787
L23031 14824
L23012 14843
L22974 14862
L22918 14862
" />
<path d="M23499 14449
L23162 14955
" />
<path d="M23799 14843
L23762 14862
L23687 14862
L23649 14843
L23631 14824
L23612 14787
L23612 14674
L23631 14637
L23649 14618
L23687 14599
L23762 14599
L23799 14618
" />
<path d="M24137 14599
L24137 14862
" />
<path d="M23968 14599
L23968 14805
L23987 14843
L24024 14862
L24080 14862
L24118 14843
L24137 14824
" />
<path d="M24268 14599
L24418 14599
" />
<path d="M24324 14468
L24324 14805
L24343 14843
L24380 14862
L24418 14862
" />
<path d="M24493 14599
L24643 14599
" />
<path d="M24549 14468
L24549 14805
L24568 14843
L24605 14862
L24643 14862
" />
<path d="M24830 14862
L24793 14843
L24774 14805
L24774 14468
" />
<path d="M25130 14843
L25093 14862
L25018 14862
L24980 14843
L24962 14805
L24962 14655
L24980 14618
L25018 14599
L25093 14599
L25130 14618
L25149 14655
L25149 14693
L24962 14730
" />
</g>
<g style="fill:#000000; fill-opacity:0.0; 
stroke:#000000; stroke-width:78.7402; stroke-opacity:1; 
stroke-linecap:round; stroke-linejoin:round;">
<path d="M21221 22726
L21238 22675
L21238 22591
L21221 22557
L21204 22540
L21170 22523
L21137 22523
L21103 22540
L21086 22557
L21069 22591
L21052 22658
L21035 22692
L21018 22709
L20985 22726
L20951 22726
L20917 22709
L20900 22692
L20883 22658
L20883 22574
L20900 22523
" />
<path d="M21238 22371
L20883 22371
L20883 22287
L20900 22236
L20934 22203
L20968 22186
L21035 22169
L21086 22169
L21153 22186
L21187 22203
L21221 22236
L21238 22287
L21238 22371
" />
<path d="M21137 22034
L21137 21865
" />
<path d="M21238 22068
L20883 21950
L21238 21831
" />
<path d="M19926 22533
L19909 22567
L19909 22618
L19926 22668
L19960 22702
L19994 22719
L20061 22736
L20112 22736
L20179 22719
L20213 22702
L20247 22668
L20264 22618
L20264 22584
L20247 22533
L20230 22517
L20112 22517
L20112 22584
" />
<path d="M20264 22365
L19909 22365
L20264 22162
L19909 22162
" />
<path d="M20264 21994
L19909 21994
L19909 21909
L19926 21859
L19960 21825
L19994 21808
L20061 21791
L20112 21791
L20179 21808
L20213 21825
L20247 21859
L20264 21909
L20264 21994
" />
<path d="M22929 22425
L22929 22206
L23064 22324
L23064 22274
L23081 22240
L23098 22223
L23132 22206
L23216 22206
L23250 22223
L23267 22240
L23284 22274
L23284 22375
L23267 22409
L23250 22425
" />
<path d="M22929 22105
L23284 21987
L22929 21869
" />
<path d="M22241 22681
L22258 22631
L22258 22546
L22241 22513
L22224 22496
L22190 22479
L22157 22479
L22123 22496
L22106 22513
L22089 22546
L22072 22614
L22055 22648
L22038 22664
L22005 22681
L21971 22681
L21937 22664
L21920 22648
L21903 22614
L21903 22529
L21920 22479
" />
<path d="M22224 22125
L22241 22141
L22258 22192
L22258 22226
L22241 22276
L22207 22310
L22173 22327
L22106 22344
L22055 22344
L21988 22327
L21954 22310
L21920 22276
L21903 22226
L21903 22192
L21920 22141
L21937 22125
" />
<path d="M22258 21804
L22258 21973
L21903 21973
" />
</g>
<g style="fill:#000000; fill-opacity:0.0; 
stroke:#000000; stroke-width:47.2441; stroke-opacity:1; 
stroke-linecap:round; stroke-linejoin:round;">
<path d="M19566 20427
L19566 21475
" />
<path d="M22590 20427
L19566 20427
" />
<path d="M22590 21475
L19566 21475
" />
<path d="M22590 20427
L22590 21475
" />
<path d="M23090 20427
L23613 20427
" />
<path d="M23613 20427
L23613 20951
" />
<path d="M21785.8 17641.6 A320.812 320.812 0.0 1 0 21824 17071 " />
</g>
<g style="fill:#000000; fill-opacity:0.0; 
stroke:#000000; stroke-width:59.0551; stroke-opacity:1; 
stroke-linecap:round; stroke-linejoin:round;">
<path d="M23791 21082
L24073 21082
L24129 21101
L24166 21138
L24185 21195
L24185 21232
" />
<path d="M24185 20689
L24185 20914
" />
<path d="M24185 20801
L23791 20801
L23848 20839
L23885 20876
L23904 20914
" />
<path d="M21510 18262
L21491 18281
L21435 18300
L21397 18300
L21341 18281
L21304 18243
L21285 18206
L21266 18131
L21266 18075
L21285 18000
L21304 17962
L21341 17925
L21397 17906
L21435 17906
L21491 17925
L21510 17943
" />
<path d="M21885 18300
L21660 18300
" />
<path d="M21772 18300
L21772 17906
L21735 17962
L21697 18000
L21660 18018
" />
<g >
</g>
</g> 
</svg>
