G04 #@! TF.GenerationSoftware,KiCad,Pcbnew,5.1.4-e60b266~84~ubuntu18.04.1*
G04 #@! TF.CreationDate,2019-09-27T19:03:02-04:00*
G04 #@! TF.ProjectId,BAR30-SENSOR,42415233-302d-4534-954e-534f522e6b69,rev?*
G04 #@! TF.SameCoordinates,Original*
G04 #@! TF.FileFunction,Legend,Top*
G04 #@! TF.FilePolarity,Positive*
%FSLAX46Y46*%
G04 Gerber Fmt 4.6, Leading zero omitted, Abs format (unit mm)*
G04 Created by KiCad (PCBNEW 5.1.4-e60b266~84~ubuntu18.04.1) date 2019-09-27 19:03:02*
%MOMM*%
%LPD*%
G04 APERTURE LIST*
%ADD10C,0.150000*%
%ADD11C,0.200000*%
%ADD12C,0.120000*%
G04 APERTURE END LIST*
D10*
X46784666Y-37702121D02*
X46689428Y-37749740D01*
X46498952Y-37749740D01*
X46403714Y-37702121D01*
X46356095Y-37606883D01*
X46356095Y-37225931D01*
X46403714Y-37130693D01*
X46498952Y-37083074D01*
X46689428Y-37083074D01*
X46784666Y-37130693D01*
X46832285Y-37225931D01*
X46832285Y-37321169D01*
X46356095Y-37416407D01*
X47689428Y-37749740D02*
X47689428Y-36749740D01*
X47689428Y-37702121D02*
X47594190Y-37749740D01*
X47403714Y-37749740D01*
X47308476Y-37702121D01*
X47260857Y-37654502D01*
X47213238Y-37559264D01*
X47213238Y-37273550D01*
X47260857Y-37178312D01*
X47308476Y-37130693D01*
X47403714Y-37083074D01*
X47594190Y-37083074D01*
X47689428Y-37130693D01*
X48594190Y-37083074D02*
X48594190Y-37892598D01*
X48546571Y-37987836D01*
X48498952Y-38035455D01*
X48403714Y-38083074D01*
X48260857Y-38083074D01*
X48165619Y-38035455D01*
X48594190Y-37702121D02*
X48498952Y-37749740D01*
X48308476Y-37749740D01*
X48213238Y-37702121D01*
X48165619Y-37654502D01*
X48118000Y-37559264D01*
X48118000Y-37273550D01*
X48165619Y-37178312D01*
X48213238Y-37130693D01*
X48308476Y-37083074D01*
X48498952Y-37083074D01*
X48594190Y-37130693D01*
X49451333Y-37702121D02*
X49356095Y-37749740D01*
X49165619Y-37749740D01*
X49070380Y-37702121D01*
X49022761Y-37606883D01*
X49022761Y-37225931D01*
X49070380Y-37130693D01*
X49165619Y-37083074D01*
X49356095Y-37083074D01*
X49451333Y-37130693D01*
X49498952Y-37225931D01*
X49498952Y-37321169D01*
X49022761Y-37416407D01*
X50356095Y-37702121D02*
X50260857Y-37749740D01*
X50070380Y-37749740D01*
X49975142Y-37702121D01*
X49927523Y-37654502D01*
X49879904Y-37559264D01*
X49879904Y-37273550D01*
X49927523Y-37178312D01*
X49975142Y-37130693D01*
X50070380Y-37083074D01*
X50260857Y-37083074D01*
X50356095Y-37130693D01*
X50927523Y-37749740D02*
X50832285Y-37702121D01*
X50784666Y-37654502D01*
X50737047Y-37559264D01*
X50737047Y-37273550D01*
X50784666Y-37178312D01*
X50832285Y-37130693D01*
X50927523Y-37083074D01*
X51070380Y-37083074D01*
X51165619Y-37130693D01*
X51213238Y-37178312D01*
X51260857Y-37273550D01*
X51260857Y-37559264D01*
X51213238Y-37654502D01*
X51165619Y-37702121D01*
X51070380Y-37749740D01*
X50927523Y-37749740D01*
X51832285Y-37749740D02*
X51737047Y-37702121D01*
X51689428Y-37606883D01*
X51689428Y-36749740D01*
X52356095Y-37749740D02*
X52260857Y-37702121D01*
X52213238Y-37606883D01*
X52213238Y-36749740D01*
X53118000Y-37702121D02*
X53022761Y-37749740D01*
X52832285Y-37749740D01*
X52737047Y-37702121D01*
X52689428Y-37606883D01*
X52689428Y-37225931D01*
X52737047Y-37130693D01*
X52832285Y-37083074D01*
X53022761Y-37083074D01*
X53118000Y-37130693D01*
X53165619Y-37225931D01*
X53165619Y-37321169D01*
X52689428Y-37416407D01*
X54022761Y-37702121D02*
X53927523Y-37749740D01*
X53737047Y-37749740D01*
X53641809Y-37702121D01*
X53594190Y-37654502D01*
X53546571Y-37559264D01*
X53546571Y-37273550D01*
X53594190Y-37178312D01*
X53641809Y-37130693D01*
X53737047Y-37083074D01*
X53927523Y-37083074D01*
X54022761Y-37130693D01*
X54308476Y-37083074D02*
X54689428Y-37083074D01*
X54451333Y-36749740D02*
X54451333Y-37606883D01*
X54498952Y-37702121D01*
X54594190Y-37749740D01*
X54689428Y-37749740D01*
X55022761Y-37749740D02*
X55022761Y-37083074D01*
X55022761Y-36749740D02*
X54975142Y-36797360D01*
X55022761Y-36844979D01*
X55070380Y-36797360D01*
X55022761Y-36749740D01*
X55022761Y-36844979D01*
X55403714Y-37083074D02*
X55641809Y-37749740D01*
X55879904Y-37083074D01*
X56641809Y-37702121D02*
X56546571Y-37749740D01*
X56356095Y-37749740D01*
X56260857Y-37702121D01*
X56213238Y-37606883D01*
X56213238Y-37225931D01*
X56260857Y-37130693D01*
X56356095Y-37083074D01*
X56546571Y-37083074D01*
X56641809Y-37130693D01*
X56689428Y-37225931D01*
X56689428Y-37321169D01*
X56213238Y-37416407D01*
X57117999Y-37654502D02*
X57165619Y-37702121D01*
X57117999Y-37749740D01*
X57070380Y-37702121D01*
X57117999Y-37654502D01*
X57117999Y-37749740D01*
X57594190Y-37749740D02*
X57594190Y-37083074D01*
X57594190Y-36749740D02*
X57546571Y-36797360D01*
X57594190Y-36844979D01*
X57641809Y-36797360D01*
X57594190Y-36749740D01*
X57594190Y-36844979D01*
X58213238Y-37749740D02*
X58117999Y-37702121D01*
X58070380Y-37654502D01*
X58022761Y-37559264D01*
X58022761Y-37273550D01*
X58070380Y-37178312D01*
X58117999Y-37130693D01*
X58213238Y-37083074D01*
X58356095Y-37083074D01*
X58451333Y-37130693D01*
X58498952Y-37178312D01*
X58546571Y-37273550D01*
X58546571Y-37559264D01*
X58498952Y-37654502D01*
X58451333Y-37702121D01*
X58356095Y-37749740D01*
X58213238Y-37749740D01*
X59689428Y-36702121D02*
X58832285Y-37987836D01*
X60451333Y-37702121D02*
X60356095Y-37749740D01*
X60165619Y-37749740D01*
X60070380Y-37702121D01*
X60022761Y-37654502D01*
X59975142Y-37559264D01*
X59975142Y-37273550D01*
X60022761Y-37178312D01*
X60070380Y-37130693D01*
X60165619Y-37083074D01*
X60356095Y-37083074D01*
X60451333Y-37130693D01*
X61308476Y-37083074D02*
X61308476Y-37749740D01*
X60879904Y-37083074D02*
X60879904Y-37606883D01*
X60927523Y-37702121D01*
X61022761Y-37749740D01*
X61165619Y-37749740D01*
X61260857Y-37702121D01*
X61308476Y-37654502D01*
X61641809Y-37083074D02*
X62022761Y-37083074D01*
X61784666Y-36749740D02*
X61784666Y-37606883D01*
X61832285Y-37702121D01*
X61927523Y-37749740D01*
X62022761Y-37749740D01*
X62213238Y-37083074D02*
X62594190Y-37083074D01*
X62356095Y-36749740D02*
X62356095Y-37606883D01*
X62403714Y-37702121D01*
X62498952Y-37749740D01*
X62594190Y-37749740D01*
X63070380Y-37749740D02*
X62975142Y-37702121D01*
X62927523Y-37606883D01*
X62927523Y-36749740D01*
X63832285Y-37702121D02*
X63737047Y-37749740D01*
X63546571Y-37749740D01*
X63451333Y-37702121D01*
X63403714Y-37606883D01*
X63403714Y-37225931D01*
X63451333Y-37130693D01*
X63546571Y-37083074D01*
X63737047Y-37083074D01*
X63832285Y-37130693D01*
X63879904Y-37225931D01*
X63879904Y-37321169D01*
X63403714Y-37416407D01*
D11*
X53902405Y-57724697D02*
X53945262Y-57596125D01*
X53945262Y-57381840D01*
X53902405Y-57296125D01*
X53859548Y-57253268D01*
X53773834Y-57210411D01*
X53688120Y-57210411D01*
X53602405Y-57253268D01*
X53559548Y-57296125D01*
X53516691Y-57381840D01*
X53473834Y-57553268D01*
X53430977Y-57638982D01*
X53388120Y-57681840D01*
X53302405Y-57724697D01*
X53216691Y-57724697D01*
X53130977Y-57681840D01*
X53088120Y-57638982D01*
X53045262Y-57553268D01*
X53045262Y-57338982D01*
X53088120Y-57210411D01*
X53945262Y-56824697D02*
X53045262Y-56824697D01*
X53045262Y-56610411D01*
X53088120Y-56481840D01*
X53173834Y-56396125D01*
X53259548Y-56353268D01*
X53430977Y-56310411D01*
X53559548Y-56310411D01*
X53730977Y-56353268D01*
X53816691Y-56396125D01*
X53902405Y-56481840D01*
X53945262Y-56610411D01*
X53945262Y-56824697D01*
X53688120Y-55967554D02*
X53688120Y-55538982D01*
X53945262Y-56053268D02*
X53045262Y-55753268D01*
X53945262Y-55453268D01*
X50614160Y-57236274D02*
X50571302Y-57321988D01*
X50571302Y-57450560D01*
X50614160Y-57579131D01*
X50699874Y-57664845D01*
X50785588Y-57707702D01*
X50957017Y-57750560D01*
X51085588Y-57750560D01*
X51257017Y-57707702D01*
X51342731Y-57664845D01*
X51428445Y-57579131D01*
X51471302Y-57450560D01*
X51471302Y-57364845D01*
X51428445Y-57236274D01*
X51385588Y-57193417D01*
X51085588Y-57193417D01*
X51085588Y-57364845D01*
X51471302Y-56807702D02*
X50571302Y-56807702D01*
X51471302Y-56293417D01*
X50571302Y-56293417D01*
X51471302Y-55864845D02*
X50571302Y-55864845D01*
X50571302Y-55650560D01*
X50614160Y-55521988D01*
X50699874Y-55436274D01*
X50785588Y-55393417D01*
X50957017Y-55350560D01*
X51085588Y-55350560D01*
X51257017Y-55393417D01*
X51342731Y-55436274D01*
X51428445Y-55521988D01*
X51471302Y-55650560D01*
X51471302Y-55864845D01*
X58242102Y-56961954D02*
X58242102Y-56404811D01*
X58584960Y-56704811D01*
X58584960Y-56576240D01*
X58627817Y-56490525D01*
X58670674Y-56447668D01*
X58756388Y-56404811D01*
X58970674Y-56404811D01*
X59056388Y-56447668D01*
X59099245Y-56490525D01*
X59142102Y-56576240D01*
X59142102Y-56833382D01*
X59099245Y-56919097D01*
X59056388Y-56961954D01*
X58242102Y-56147668D02*
X59142102Y-55847668D01*
X58242102Y-55547668D01*
X56493205Y-57611828D02*
X56536062Y-57483257D01*
X56536062Y-57268971D01*
X56493205Y-57183257D01*
X56450348Y-57140400D01*
X56364634Y-57097542D01*
X56278920Y-57097542D01*
X56193205Y-57140400D01*
X56150348Y-57183257D01*
X56107491Y-57268971D01*
X56064634Y-57440400D01*
X56021777Y-57526114D01*
X55978920Y-57568971D01*
X55893205Y-57611828D01*
X55807491Y-57611828D01*
X55721777Y-57568971D01*
X55678920Y-57526114D01*
X55636062Y-57440400D01*
X55636062Y-57226114D01*
X55678920Y-57097542D01*
X56450348Y-56197542D02*
X56493205Y-56240400D01*
X56536062Y-56368971D01*
X56536062Y-56454685D01*
X56493205Y-56583257D01*
X56407491Y-56668971D01*
X56321777Y-56711828D01*
X56150348Y-56754685D01*
X56021777Y-56754685D01*
X55850348Y-56711828D01*
X55764634Y-56668971D01*
X55678920Y-56583257D01*
X55636062Y-56454685D01*
X55636062Y-56368971D01*
X55678920Y-56240400D01*
X55721777Y-56197542D01*
X56536062Y-55383257D02*
X56536062Y-55811828D01*
X55636062Y-55811828D01*
D12*
X49699000Y-51886840D02*
X49699000Y-54546840D01*
X57379000Y-51886840D02*
X49699000Y-51886840D01*
X57379000Y-54546840D02*
X49699000Y-54546840D01*
X57379000Y-51886840D02*
X57379000Y-54546840D01*
X58649000Y-51886840D02*
X59979000Y-51886840D01*
X59979000Y-51886840D02*
X59979000Y-53216840D01*
X55432905Y-43360281D02*
G75*
G02X55335867Y-44809640I320095J-749359D01*
G01*
D10*
X60431380Y-53550173D02*
X61145666Y-53550173D01*
X61288523Y-53597792D01*
X61383761Y-53693030D01*
X61431380Y-53835887D01*
X61431380Y-53931125D01*
X61431380Y-52550173D02*
X61431380Y-53121601D01*
X61431380Y-52835887D02*
X60431380Y-52835887D01*
X60574238Y-52931125D01*
X60669476Y-53026363D01*
X60717095Y-53121601D01*
X54636333Y-46386782D02*
X54588714Y-46434401D01*
X54445857Y-46482020D01*
X54350619Y-46482020D01*
X54207761Y-46434401D01*
X54112523Y-46339163D01*
X54064904Y-46243925D01*
X54017285Y-46053449D01*
X54017285Y-45910592D01*
X54064904Y-45720116D01*
X54112523Y-45624878D01*
X54207761Y-45529640D01*
X54350619Y-45482020D01*
X54445857Y-45482020D01*
X54588714Y-45529640D01*
X54636333Y-45577259D01*
X55588714Y-46482020D02*
X55017285Y-46482020D01*
X55303000Y-46482020D02*
X55303000Y-45482020D01*
X55207761Y-45624878D01*
X55112523Y-45720116D01*
X55017285Y-45767735D01*
M02*
